<svg width="242" height="222" viewBox="0 0 242 222" fill="none" xmlns="http://www.w3.org/2000/svg">
<g id="364599458_0e374bd0-b7dd-4fda-b6b4-1fcec5b50116 1">
<g id="Group" opacity="0.25">
<path id="Vector" d="M203.29 169.665C211.101 169.665 217.433 163.312 217.433 155.476C217.433 147.639 211.101 141.286 203.29 141.286C195.478 141.286 189.146 147.639 189.146 155.476C189.146 163.312 195.478 169.665 203.29 169.665Z" fill="#CCD2D6"/>
<path id="Vector_2" d="M35.4901 54.0428C32.5122 61.5649 30.8738 69.7671 30.8738 78.3542C30.8738 79.4642 30.902 80.5671 30.9562 81.6653C25.3935 79.7571 21.3892 74.4645 21.3892 68.2343C21.3892 60.4124 27.6981 54.0688 35.4901 54.0452V54.0428Z" fill="#CCD2D6"/>
<path id="Vector_3" d="M49.6783 68.2319C49.6783 72.7097 47.6114 76.6986 44.3839 79.2988C44.3769 78.9847 44.3745 78.6683 44.3745 78.3542C44.3745 72.1193 45.4621 66.1371 47.456 60.5918C48.8638 62.7976 49.6783 65.4215 49.6783 68.2343V68.2319Z" fill="#CCD2D6"/>
</g>
<g id="Group_2" opacity="0.5">
<path id="Vector_4" d="M96.5623 12.4532C60.2858 12.4532 30.8762 41.958 30.8762 78.3518C30.8762 114.746 60.2858 144.25 96.5623 144.25C105.868 144.25 114.724 142.309 122.747 138.807C131.273 135.085 138.86 129.598 145.047 122.811C155.732 111.092 162.248 95.486 162.248 78.3518C162.248 41.958 132.839 12.4532 96.5623 12.4532ZM96.5623 130.706C67.7412 130.706 44.3769 107.266 44.3769 78.3518C44.3769 49.4375 67.7412 25.9976 96.5623 25.9976C125.383 25.9976 148.748 49.4375 148.748 78.3518C148.748 107.266 125.386 130.706 96.5623 130.706Z" fill="#CCD2D6"/>
</g>
<path id="Vector_5" d="M96.5623 144.961C78.829 144.961 62.155 138.032 49.6148 125.451C37.0746 112.87 30.1677 96.1449 30.1677 78.3542C30.1677 60.5635 37.0746 43.8356 49.6148 31.2548C62.155 18.674 78.8267 11.7448 96.5623 11.7448C114.298 11.7448 130.97 18.674 143.508 31.2548C156.048 43.8356 162.955 60.5611 162.955 78.3542C162.955 95.0349 156.78 110.993 145.567 123.29C139.211 130.264 131.626 135.706 123.027 139.459C114.663 143.11 105.757 144.961 96.56 144.961H96.5623ZM96.5623 13.1641C60.7332 13.1641 31.5825 42.4091 31.5825 78.3542C31.5825 114.299 60.7332 143.544 96.5623 143.544C105.564 143.544 114.279 141.733 122.464 138.16C130.88 134.485 138.303 129.161 144.527 122.334C155.499 110.299 161.542 94.6783 161.542 78.3542C161.542 42.4091 132.392 13.1641 96.5623 13.1641ZM96.5623 131.417C82.4355 131.417 69.1514 125.898 59.163 115.875C49.1723 105.852 43.6708 92.5268 43.6708 78.3542C43.6708 64.1816 49.1723 50.8545 59.163 40.8338C69.1537 30.8131 82.4355 25.2915 96.5623 25.2915C110.689 25.2915 123.973 30.8108 133.964 40.8338C143.952 50.8569 149.454 64.1816 149.454 78.3542C149.454 92.5268 143.952 105.854 133.964 115.875C123.973 125.898 110.692 131.417 96.5623 131.417ZM96.5623 26.7085C68.1768 26.7085 45.0832 49.8768 45.0832 78.3542C45.0832 106.832 68.1768 130 96.5623 130C124.948 130 148.041 106.832 148.041 78.3542C148.041 49.8768 124.948 26.7085 96.5623 26.7085Z" fill="#CCD2D6"/>
<g id="Group_3" opacity="0.75">
<path id="Vector_6" d="M188.075 180.602C194.434 195.584 179.556 207.818 164.93 193.688C153.301 182.458 138.489 154.904 132.9 144.071C134.143 143.818 135.351 143.282 136.429 142.455L144.456 136.277C145.956 135.122 146.973 133.573 147.472 131.887C156.37 140.672 182.294 166.965 188.075 180.602Z" fill="#CCD2D6"/>
</g>
<path id="Vector_7" d="M177.964 200.65C174.004 200.65 169.306 198.903 164.437 194.198C152.796 182.956 138.062 155.624 132.269 144.397L131.838 143.563L132.756 143.377C133.935 143.138 135.025 142.637 135.993 141.891L144.02 135.713C145.355 134.686 146.313 133.292 146.789 131.681L147.123 130.55L147.961 131.377C158.307 141.591 182.987 166.805 188.72 180.321C191.78 187.531 190.255 194.852 184.925 198.536C183.082 199.809 180.697 200.645 177.961 200.645L177.964 200.65ZM133.935 144.539C139.957 156.149 154.192 182.335 165.419 193.178C173.039 200.539 180.08 200.171 184.127 197.375C188.089 194.635 190.645 188.473 187.425 180.88C181.813 167.641 156.598 141.936 147.756 133.165C147.13 134.608 146.151 135.864 144.884 136.839L136.857 143.018C135.965 143.705 134.985 144.213 133.935 144.539Z" fill="#CCD2D6"/>
<path id="Vector_8" d="M147.469 131.887C146.97 133.571 145.953 135.122 144.454 136.275L136.424 142.453C135.348 143.282 134.141 143.821 132.898 144.071C129.757 144.713 126.389 143.573 124.31 140.854L122.742 138.809C131.269 135.087 138.856 129.601 145.042 122.813L146.048 124.129C147.801 126.424 148.232 129.315 147.465 131.889L147.469 131.887Z" fill="#CCD2D6"/>
<path id="Vector_9" d="M143.707 156.215C143.47 156.215 143.239 156.094 143.105 155.877C141.601 153.416 140.266 150.823 139.141 148.168C138.987 147.809 139.155 147.391 139.512 147.24C139.87 147.087 140.287 147.254 140.44 147.613C141.539 150.204 142.841 152.736 144.31 155.138C144.515 155.471 144.409 155.908 144.077 156.113C143.962 156.184 143.835 156.217 143.707 156.217V156.215Z" fill="#CCD2D6"/>
<path id="Vector_10" d="M165.558 184.938C165.365 184.938 165.17 184.858 165.031 184.702C158.047 176.856 151.735 168.264 145.631 159.953C145.4 159.639 145.466 159.195 145.782 158.964C146.095 158.732 146.537 158.799 146.768 159.115C152.851 167.4 159.144 175.966 166.083 183.762C166.342 184.055 166.319 184.501 166.027 184.763C165.893 184.884 165.723 184.943 165.556 184.943L165.558 184.938Z" fill="#CCD2D6"/>
<path id="Vector_11" d="M172.093 192.557C171.919 192.557 171.742 192.493 171.606 192.361C170.184 191.003 168.837 189.536 167.606 188.003C167.361 187.699 167.408 187.252 167.712 187.007C168.016 186.761 168.461 186.808 168.706 187.113C169.899 188.598 171.203 190.018 172.58 191.333C172.863 191.603 172.875 192.051 172.606 192.335C172.467 192.481 172.281 192.554 172.095 192.554L172.093 192.557Z" fill="#CCD2D6"/>
<path id="Vector_12" d="M143.145 144.272C142.921 144.272 142.702 144.165 142.566 143.967C142.342 143.646 142.422 143.204 142.742 142.98C145.409 141.116 147.928 139.005 150.228 136.702C150.504 136.426 150.951 136.426 151.226 136.702C151.502 136.979 151.502 137.427 151.226 137.704C148.868 140.065 146.285 142.231 143.55 144.142C143.427 144.227 143.286 144.269 143.147 144.269L143.145 144.272Z" fill="#CCD2D6"/>
<g id="Group_4" opacity="0.5">
<path id="Vector_13" d="M121 63.8604V105.915C121 107.727 119.536 109.193 117.733 109.193H75.3968C73.5888 109.193 72.127 107.724 72.127 105.915V50.7907C72.127 48.9793 73.5912 47.5127 75.3968 47.5127H104.705C105.178 47.5127 105.637 47.6143 106.059 47.8103C106.412 47.9685 106.734 48.1952 107.017 48.4739L120.044 61.5436C120.499 61.9994 120.807 62.578 120.934 63.2015C120.979 63.4188 121 63.6384 121 63.8628V63.8604Z" fill="#CCD2D6"/>
</g>
<path id="Vector_14" d="M117.73 109.902H75.3945C73.2005 109.902 71.4185 108.114 71.4185 105.915V50.7908C71.4185 48.592 73.2029 46.8042 75.3945 46.8042H104.703C105.282 46.8042 105.838 46.927 106.353 47.1655C106.772 47.3545 107.165 47.6261 107.509 47.9685L120.539 61.0405C121.09 61.5932 121.464 62.2899 121.622 63.0551C121.676 63.3101 121.704 63.5817 121.704 63.8581V105.913C121.704 108.112 119.922 109.899 117.73 109.899V109.902ZM75.3945 48.2212C73.9797 48.2212 72.8309 49.3737 72.8309 50.7908V105.915C72.8309 107.332 73.9821 108.485 75.3945 108.485H117.73C119.143 108.485 120.292 107.332 120.292 105.915V63.8604C120.292 63.6833 120.275 63.5109 120.24 63.3456C120.139 62.8472 119.896 62.3985 119.541 62.0419L106.513 48.9722C106.292 48.7526 106.04 48.5778 105.767 48.455C105.43 48.2992 105.075 48.2212 104.703 48.2212H75.3945Z" fill="#CCD2D6"/>
<g id="Group_5" opacity="0.75">
<path id="Vector_15" d="M120.932 63.1992H108.121C106.981 63.1992 106.056 62.2734 106.056 61.128V47.808C106.409 47.9662 106.732 48.1929 107.014 48.4716L120.042 61.5413C120.496 61.9971 120.804 62.5757 120.932 63.1992Z" fill="#CCD2D6"/>
</g>
<g id="Group_6" opacity="0.75">
<path id="Vector_16" d="M107.358 87.0405C107.979 87.664 107.979 88.6772 107.358 89.3031L105.079 91.5939C104.451 92.2174 103.441 92.2174 102.819 91.5939L96.5527 85.3023C95.9312 84.6788 94.9213 84.6788 94.2975 85.3023L88.0309 91.5892C87.4094 92.2127 86.3995 92.2127 85.7757 91.5892L83.4969 89.3031C82.8755 88.6796 82.8755 87.6664 83.4969 87.0405L89.7635 80.7537C90.385 80.1302 90.385 79.117 89.7635 78.4912L83.4922 72.2043C82.8708 71.5808 82.8708 70.5677 83.4922 69.9371L85.7757 67.651C86.3972 67.0275 87.4071 67.0275 88.0309 67.651L94.2975 73.9378C94.926 74.5613 95.9289 74.5613 96.5574 73.9378L102.824 67.651C103.445 67.0275 104.455 67.0275 105.079 67.651L107.358 69.9371C107.979 70.5606 107.979 71.5737 107.358 72.1996L101.091 78.4865C100.47 79.117 100.47 80.1231 101.091 80.7537L107.358 87.0405Z" fill="#CCD2D6"/>
</g>
<g id="Group_7" opacity="0.5">
<path id="Vector_17" d="M28.9552 154.715L42.4205 133.195C43.4257 131.587 45.7045 131.429 46.9145 132.888C50.0784 136.705 56.1707 143.034 63.7344 145.88C70.4224 148.398 76.4465 148.856 80.2154 148.816C82.1481 148.794 83.5087 150.714 82.8614 152.542L74.7327 175.522C74.2972 176.75 73.0754 177.513 71.783 177.362C64.4665 176.507 40.9116 172.676 29.1435 157.958C28.3996 157.027 28.3172 155.724 28.9505 154.713L28.9552 154.715Z" fill="#CCD2D6"/>
</g>
<path id="Vector_18" d="M72.1198 178.091C71.9832 178.091 71.8443 178.084 71.7054 178.068C64.6196 177.241 40.5679 173.377 28.5951 158.404C27.6605 157.235 27.564 155.603 28.355 154.34L41.8203 132.82C42.423 131.856 43.4164 131.261 44.5463 131.185C45.674 131.112 46.7333 131.566 47.456 132.437C50.4104 135.999 56.4839 142.396 63.9817 145.219C70.5213 147.68 76.416 148.15 80.2084 148.109C81.3478 148.109 82.4189 148.645 83.0804 149.574C83.7419 150.504 83.9114 151.704 83.53 152.781L75.4037 175.76C74.9023 177.177 73.5887 178.091 72.1198 178.091ZM29.5532 155.093C29.0824 155.846 29.1412 156.819 29.6991 157.518C41.3354 172.069 64.9186 175.85 71.8702 176.66C72.8401 176.773 73.7464 176.209 74.0736 175.288L82.1999 152.308C82.4306 151.657 82.3341 150.96 81.9316 150.398C81.5361 149.843 80.924 149.526 80.2484 149.526C80.2414 149.526 80.2343 149.526 80.2249 149.526C76.3147 149.564 70.2318 149.082 63.4873 146.546C55.6835 143.61 49.4146 137.014 46.3708 133.344C45.9423 132.827 45.3114 132.555 44.6429 132.6C43.9696 132.645 43.3764 132.999 43.0185 133.573L29.5532 155.093Z" fill="#CCD2D6"/>
<path id="Vector_19" d="M39.8102 160.242C39.6878 160.242 39.5654 160.211 39.4547 160.145C39.1181 159.946 39.0051 159.512 39.2029 159.174L49.1465 142.149C49.3443 141.811 49.7751 141.697 50.1117 141.896C50.4483 142.094 50.5613 142.529 50.3636 142.866L40.4199 159.892C40.2881 160.116 40.0527 160.242 39.8102 160.242Z" fill="#CCD2D6"/>
<path id="Vector_20" d="M49.7536 159.375C49.6571 159.375 49.5606 159.356 49.4664 159.313C49.111 159.155 48.9485 158.735 49.1086 158.378L53.8803 147.602C54.0381 147.245 54.4571 147.082 54.8126 147.243C55.168 147.401 55.3305 147.821 55.1704 148.178L50.3987 158.954C50.281 159.219 50.0243 159.375 49.7536 159.375Z" fill="#CCD2D6"/>
<g id="Group_8" opacity="0.25">
<path id="Vector_21" d="M66.3053 189.024C66.0722 187.8 66.6749 186.565 67.786 186.008C71.2583 184.269 78.6266 179.879 82.2424 172.508C84.3188 168.274 85.5594 165.428 86.2985 163.56C86.9436 161.932 88.8998 161.29 90.3735 162.228L110.861 175.217C111.998 175.937 112.459 177.371 111.956 178.623C110.221 182.93 105.383 192.552 95.0039 198.586C85.1662 204.306 76.3737 205.917 72.1976 206.373C70.7569 206.528 69.4409 205.546 69.1702 204.117L66.3053 189.024Z" fill="#CCD2D6"/>
</g>
<path id="Vector_22" d="M71.9054 207.098C70.2599 207.098 68.7933 205.907 68.4779 204.252L65.6129 189.158C65.321 187.625 66.0861 186.069 67.4703 185.375C70.5306 183.842 78.0307 179.489 81.6066 172.196C83.3698 168.604 84.7258 165.61 85.6415 163.3C86.0276 162.327 86.8162 161.583 87.8073 161.259C88.796 160.936 89.8694 161.07 90.7499 161.63L111.237 174.62C112.664 175.524 113.243 177.321 112.61 178.89C110.983 182.926 106.049 192.984 95.3568 199.202C85.4791 204.946 76.6536 206.602 72.2727 207.079C72.1479 207.093 72.0255 207.098 71.9031 207.098H71.9054ZM88.8901 162.504C88.6736 162.504 88.457 162.537 88.2475 162.606C87.6566 162.799 87.1858 163.241 86.9574 163.822C86.0299 166.167 84.6575 169.195 82.8778 172.82C79.2478 180.224 72.0631 184.657 68.1036 186.641C67.282 187.052 66.8277 187.977 67.0019 188.891L69.8668 203.985C70.0669 205.045 71.0603 205.785 72.1243 205.669C76.3947 205.204 84.9988 203.588 94.6529 197.974C104.966 191.978 109.733 182.257 111.306 178.358C111.682 177.423 111.339 176.355 110.489 175.817L90.0013 162.828C89.6646 162.615 89.2809 162.504 88.8925 162.504H88.8901Z" fill="#CCD2D6"/>
<g id="Group_9" opacity="0.25">
<path id="Vector_23" d="M162.705 115.634C160.725 114.597 160.179 112.011 161.568 110.254C165.619 105.131 172.684 94.6499 173.456 83.0279C174.228 71.4131 172.578 65.9883 171.551 63.8131C171.295 63.2699 171.716 62.6512 172.312 62.7055L203.72 65.4899C204.054 65.5206 204.332 65.7615 204.405 66.0898C205.147 69.4552 208.614 87.6238 201.164 104.264C193.988 120.291 186.931 125.803 185.215 126.967C184.979 127.128 184.678 127.145 184.426 127.012L162.707 115.629L162.705 115.634Z" fill="#CCD2D6"/>
</g>
<path id="Vector_24" d="M184.704 127.655C184.327 127.655 183.948 127.565 183.605 127.385L163.348 116.77C161.992 116.059 161.024 114.79 160.695 113.293C160.365 111.789 160.711 110.223 161.651 109C165.483 103.998 172.023 93.9626 172.752 82.9831C173.39 73.3686 172.369 68.0689 171.399 65.3152C171.128 64.5429 171.262 63.6974 171.764 63.0503C172.263 62.4032 173.049 62.0608 173.861 62.1316L203.113 64.7248C204.175 64.8192 205.029 65.5844 205.241 66.6307C206.23 71.5194 208.909 88.6984 201.809 104.557C195.182 119.356 188.645 125.307 186.142 127.178C185.721 127.492 185.215 127.652 184.706 127.652L184.704 127.655ZM173.645 63.5392C173.343 63.5392 173.068 63.6738 172.88 63.9171C172.672 64.1839 172.618 64.5217 172.731 64.8405C173.746 67.7194 174.817 73.2222 174.163 83.0752C173.409 94.4279 166.702 104.73 162.771 109.859C162.088 110.75 161.834 111.89 162.074 112.984C162.314 114.073 163.016 114.994 164.002 115.511L184.259 126.127C184.593 126.301 184.991 126.268 185.297 126.039C187.713 124.235 194.029 118.47 200.519 103.974C207.445 88.5024 204.824 71.6941 203.855 66.9093C203.767 66.4842 203.419 66.1701 202.986 66.1323L173.734 63.5392C173.703 63.5368 173.673 63.5345 173.642 63.5345L173.645 63.5392Z" fill="#CCD2D6"/>
<path id="Vector_25" d="M198.035 73.789C198.011 73.789 197.988 73.789 197.964 73.7843L176.886 71.6564C176.497 71.6163 176.215 71.2691 176.255 70.8794C176.295 70.4897 176.639 70.2063 177.03 70.2465L198.108 72.3744C198.496 72.4145 198.779 72.7617 198.739 73.1514C198.701 73.5174 198.395 73.789 198.037 73.789H198.035Z" fill="#CCD2D6"/>
<path id="Vector_26" d="M189.584 81.1032C189.539 81.1032 189.497 81.0985 189.452 81.0914L178.68 79.0509C178.296 78.9777 178.044 78.6069 178.117 78.2243C178.19 77.8417 178.56 77.5867 178.941 77.6599L189.713 79.7004C190.097 79.7736 190.349 80.1444 190.276 80.527C190.212 80.8671 189.916 81.1032 189.584 81.1032Z" fill="#CCD2D6"/>
<path id="Vector_27" d="M188.092 101.319C188.021 101.319 187.95 101.31 187.882 101.286L175.554 97.4297C175.182 97.314 174.975 96.9149 175.09 96.5417C175.205 96.1686 175.603 95.9607 175.975 96.0764L188.303 99.9331C188.675 100.049 188.883 100.448 188.767 100.821C188.673 101.123 188.395 101.319 188.094 101.319H188.092Z" fill="#CCD2D6"/>
<path id="Vector_28" d="M43.1152 132.591C43.5837 132.213 44.1651 132.007 44.7843 132.007C45.4034 132.007 45.9778 132.213 46.4463 132.591H43.1176H43.1152Z" fill="#CCD2D6"/>
<path id="Vector_29" d="M44.784 132.123C45.2431 132.123 45.6833 132.243 46.0693 132.47H43.494C43.88 132.243 44.3226 132.123 44.7864 132.123M44.7864 131.887C44.066 131.887 43.348 132.166 42.8113 132.706H46.752C46.2082 132.156 45.4949 131.887 44.784 131.887H44.7864Z" fill="#CCD2D6"/>
</g>
</svg>
