<svg width="24" height="24" viewBox="0 0 24 24" fill="none" xmlns="http://www.w3.org/2000/svg">
<g id="Icon / Eye">
<path id="Intersect" d="M21.3351 11.4069L21.8016 11.2271L21.3351 11.4069ZM21.3351 12.5932L20.8685 12.4134L21.3351 12.5932ZM2.66495 11.4068L2.19836 11.2271L2.66495 11.4068ZM2.66495 12.5932L2.19836 12.7729L2.66495 12.5932ZM3.13154 11.5866C4.50313 8.02545 7.95726 5.5 12 5.5V4.5C7.53005 4.5 3.71366 7.29293 2.19836 11.2271L3.13154 11.5866ZM12 5.5C16.0427 5.5 19.4969 8.02546 20.8685 11.5866L21.8016 11.2271C20.2863 7.29294 16.47 4.5 12 4.5V5.5ZM20.8685 12.4134C19.4969 15.9746 16.0427 18.5 12 18.5V19.5C16.47 19.5 20.2863 16.7071 21.8016 12.7729L20.8685 12.4134ZM12 18.5C7.95726 18.5 4.50313 15.9745 3.13154 12.4134L2.19836 12.7729C3.71366 16.7071 7.53005 19.5 12 19.5V18.5ZM20.8685 11.5866C20.9709 11.8525 20.9709 12.1475 20.8685 12.4134L21.8016 12.7729C21.9932 12.2756 21.9932 11.7244 21.8016 11.2271L20.8685 11.5866ZM2.19836 11.2271C2.00684 11.7244 2.00684 12.2756 2.19836 12.7729L3.13154 12.4134C3.02911 12.1475 3.02911 11.8525 3.13154 11.5866L2.19836 11.2271Z" fill="#1A1A1A"/>
<circle id="Ellipse 91" cx="12" cy="12" r="3" stroke="#1A1A1A" stroke-linecap="round" stroke-linejoin="round"/>
</g>
</svg>
