<svg width="24" height="24" viewBox="0 0 24 24" fill="none" xmlns="http://www.w3.org/2000/svg">
<g id="Icon / Eye Off">
<path id="Vector 11" d="M4 4L20 20" stroke="#1A1A1A" stroke-linecap="round"/>
<path id="Subtract" fill-rule="evenodd" clip-rule="evenodd" d="M5.41053 6.82472C3.98561 7.97474 2.86758 9.48964 2.19836 11.2271C2.00684 11.7244 2.00684 12.2756 2.19836 12.7729C3.71366 16.7071 7.53005 19.5 12 19.5C13.7632 19.5 15.4247 19.0654 16.8835 18.2976L16.1391 17.5533C14.8879 18.1599 13.4836 18.5 12 18.5C7.95726 18.5 4.50313 15.9745 3.13154 12.4134C3.02911 12.1475 3.02911 11.8525 3.13154 11.5866C3.75028 9.9801 4.79283 8.58439 6.12203 7.53622L5.41053 6.82472ZM8.9207 10.3349C8.65237 10.8301 8.5 11.3972 8.5 12C8.5 13.933 10.067 15.5 12 15.5C12.6028 15.5 13.1699 15.3476 13.6651 15.0793L12.9136 14.3278C12.6306 14.439 12.3224 14.5 12 14.5C10.6193 14.5 9.5 13.3807 9.5 12C9.5 11.6776 9.56104 11.3694 9.6722 11.0864L8.9207 10.3349ZM11.0864 9.67218L10.3349 8.92068C10.8301 8.65236 11.3972 8.5 12 8.5C13.933 8.5 15.5 10.067 15.5 12C15.5 12.6028 15.3476 13.1699 15.0793 13.6651L14.3278 12.9136C14.439 12.6306 14.5 12.3224 14.5 12C14.5 10.6193 13.3807 9.5 12 9.5C11.6776 9.5 11.3694 9.56104 11.0864 9.67218ZM17.878 16.4638C19.2072 15.4156 20.2497 14.0199 20.8685 12.4134C20.9709 12.1475 20.9709 11.8525 20.8685 11.5866C19.4969 8.02546 16.0427 5.5 12 5.5C10.5164 5.5 9.11212 5.8401 7.86092 6.44667L7.11658 5.70234C8.57528 4.93457 10.2368 4.5 12 4.5C16.47 4.5 20.2863 7.29294 21.8016 11.2271C21.9932 11.7244 21.9932 12.2756 21.8016 12.7729C21.1324 14.5103 20.0144 16.0252 18.5895 17.1753L17.878 16.4638Z" fill="#1A1A1A"/>
</g>
</svg>
