<svg width="24" height="25" viewBox="0 0 24 25" fill="none" xmlns="http://www.w3.org/2000/svg">
<g id="Icon / Notification">
<path id="Union" d="M5.82474 14.434L5.46225 14.0896L5.82474 14.434ZM7.5 9.5C7.5 7.01472 9.51472 5 12 5V4C8.96243 4 6.5 6.46243 6.5 9.5H7.5ZM7.5 12.2564V9.5H6.5V12.2564H7.5ZM5.5 16.5C5.5 15.8326 5.76087 15.2272 6.18722 14.7784L5.46225 14.0896C4.86639 14.7168 4.5 15.5662 4.5 16.5H5.5ZM7 17H6V18H7V17ZM17 17H7V18H17V17ZM18 17H17V18H18V17ZM17.8128 14.7784C18.2391 15.2272 18.5 15.8326 18.5 16.5H19.5C19.5 15.5662 19.1336 14.7168 18.5378 14.0896L17.8128 14.7784ZM16.5 9.5V12.2564H17.5V9.5H16.5ZM12 5C14.4853 5 16.5 7.01472 16.5 9.5H17.5C17.5 6.46243 15.0376 4 12 4V5ZM18.5378 14.0896C17.9419 13.4625 17.5 12.881 17.5 12.2564H16.5C16.5 13.327 17.241 14.1766 17.8128 14.7784L18.5378 14.0896ZM4.5 16.5C4.5 17.3284 5.17157 18 6 18V17C5.72386 17 5.5 16.7761 5.5 16.5H4.5ZM18 18C18.8284 18 19.5 17.3284 19.5 16.5H18.5C18.5 16.7761 18.2761 17 18 17V18ZM6.5 12.2564C6.5 12.881 6.05811 13.4625 5.46225 14.0896L6.18722 14.7784C6.75902 14.1766 7.5 13.327 7.5 12.2564H6.5Z" fill="#1A1A1A"/>
<path id="Ellipse 112" d="M13.7976 20.3767C13.6312 20.7179 13.3712 21.0046 13.048 21.2035C12.7247 21.4023 12.3516 21.5051 11.9721 21.4998C11.5926 21.4945 11.2224 21.3813 10.9049 21.1735C10.5873 20.9657 10.3354 20.6718 10.1786 20.3262" stroke="#1A1A1A" stroke-linecap="round" stroke-linejoin="round"/>
<path id="Vector 186" d="M12 3.5V4.5" stroke="#1A1A1A" stroke-linecap="round" stroke-linejoin="round"/>
</g>
</svg>
