<svg width="14" height="14" viewBox="0 0 14 14" fill="none" xmlns="http://www.w3.org/2000/svg">
<path d="M8.0805 4.44555C7.99052 4.53735 7.94012 4.66077 7.94012 4.78932C7.94012 4.91787 7.99052 5.04129 8.0805 5.13309L8.86626 5.91885C8.95806 6.00883 9.08148 6.05923 9.21003 6.05923C9.33858 6.05923 9.462 6.00883 9.5538 5.91885L11.4052 4.0674C11.6522 4.61311 11.727 5.22111 11.6196 5.81039C11.5122 6.39966 11.2278 6.94222 10.8043 7.36577C10.3807 7.78931 9.83817 8.07371 9.2489 8.18108C8.65962 8.28845 8.05162 8.21368 7.50591 7.96674L4.11241 11.3602C3.91704 11.5556 3.65206 11.6654 3.37576 11.6654C3.09947 11.6654 2.83449 11.5556 2.63911 11.3602C2.44374 11.1649 2.33398 10.8999 2.33398 10.6236C2.33398 10.3473 2.44374 10.0823 2.63911 9.88693L6.03261 6.49344C5.78567 5.94773 5.7109 5.33973 5.81827 4.75045C5.92564 4.16117 6.21004 3.61861 6.63358 3.19507C7.05712 2.77153 7.59969 2.48713 8.18896 2.37976C8.77824 2.27239 9.38624 2.34716 9.93195 2.5941L8.08541 4.44064L8.0805 4.44555Z" stroke="#1A1A1A" stroke-linecap="round" stroke-linejoin="round"/>
</svg>
